# xmcd CD database file
#
# Track frame offsets:
#	150
#	18627
#	36111
#	59578
#	78880
#	96025
#	120084
#	137994
#	159128
#	172250
#	197352
#	221057
#	252929
#	290828
#
# Disc length: 4142 seconds
#
# Revision: 0
# Processed by: cddbd v1.4PL0 Copyright (c) Steve Scherf et al.
# Submitted via: CDex 1.40Release
#
DISCID=c3102c0e
DTITLE=The Rockin' Johnny Band - Straight Out Of Chicago
DYEAR=1900
DGENRE=Blues
TTITLE0=House Band Blues
TTITLE1=Undercover Lover
TTITLE2=Got My Eyes On You
TTITLE3=Confusion Blues
TTITLE4=If You Got Money
TTITLE5=Sweet Thing
TTITLE6=Stranger Blues
TTITLE7=Cut You A Loose
TTITLE8=Stompin' At The Fishmarket
TTITLE9=My Woman Is Gone
TTITLE10=Tend To Your Business
TTITLE11=Sugar Mama
TTITLE12=I Wanna Boogie
TTITLE13=Tribute To Fast Fingers
EXTD=ID3G: 0
EXTT0=
EXTT1=
EXTT2=
EXTT3=
EXTT4=
EXTT5=
EXTT6=
EXTT7=
EXTT8=
EXTT9=
EXTT10=
EXTT11=
EXTT12=
EXTT13=
PLAYORDER=
